<svg xmlns="http://www.w3.org/2000/svg" width="362.69482421875" height="364.2939758300781" viewBox="-89.86210632324219 -76.40926361083984 362.69482421875 364.2939758300781"><title>Neo4j Graph Visualization</title><desc>Created using Neo4j (http://www.neo4j.com/)</desc><g class="layer relationships"><g class="relationship" transform="translate(136.58546929599862 258.88469340384427) rotate(329.8088713727123)"><path class="outline" fill="#A5ABB6" stroke="none" d="M 21.40063509461097,12.933012701892217 L 21.90063509461097,12.06698729810778 A 57.583010250930904 57.583010250930904 0 0 0 24.244353710220583,13.34859026583596 L 23.78505527489038,14.236872285975522 A 58.583010250930904 58.583010250930904 0 0 1 21.40063509461097,12.933012701892217 Z M 74.27463365560052,15.82545078916744 L 73.87208531719128,14.910052058971708 A 57.583010250930904 57.583010250930904 0 0 0 76.29173584122388,13.778321323507903 L 74.95803017823798,11.091086833456966 L 82.78423392850705,11.11421385821593 L 78.07001005853843,17.361300643575817 L 76.73630439555252,14.67406615352488 A 58.583010250930904 58.583010250930904 0 0 1 74.27463365560052,15.82545078916744"/><text text-anchor="middle" pointer-events="none" font-size="8px" fill="#000000" x="48.86554971956614" y="23.252919494667523" font-family="sans-serif">PRODUCED</text></g><g class="relationship" transform="translate(136.58546929599862 258.88469340384427) rotate(329.8088713727123)"><path class="outline" fill="#A5ABB6" stroke="none" d="M 25 0.5 L 25.643614839465755 0.5 L 25.643614839465755 -0.5 L 25 -0.5 Z M 72.53423983946576 0.5 L 73.17785467893151 0.5 L 73.17785467893151 3.5 L 80.17785467893151 0 L 73.17785467893151 -3.5 L 73.17785467893151 -0.5 L 72.53423983946576 -0.5 Z"/><text text-anchor="middle" pointer-events="none" font-size="8px" fill="#000000" x="49.088927339465755" y="3" font-family="sans-serif">DIRECTED</text></g><g class="relationship" transform="translate(136.58546929599862 258.88469340384427) rotate(329.8088713727123)"><path class="outline" fill="#A5ABB6" stroke="none" d="M 21.40063509461097,-12.933012701892217 L 21.90063509461097,-12.06698729810778 A 57.583010250930904 57.583010250930904 0 0 1 31.521303669725807,-16.496723154766947 L 31.188378446351596,-17.439676385654472 A 58.583010250930904 58.583010250930904 0 0 0 21.40063509461097,-12.933012701892217 Z M 66.68461035881849,-18.556511835047004 L 66.41162216530913,-17.594494451521896 A 57.583010250930904 57.583010250930904 0 0 1 76.29173584122388,-13.778321323507903 L 74.95803017823798,-11.091086833456966 L 82.78423392850705,-11.11421385821593 L 78.07001005853843,-17.361300643575817 L 76.73630439555252,-14.67406615352488 A 58.583010250930904 58.583010250930904 0 0 0 66.68461035881849,-18.556511835047004"/><text text-anchor="middle" pointer-events="none" font-size="8px" fill="#000000" x="48.86554971956615" y="-17.252919494667523" font-family="sans-serif">WROTE</text></g><g class="relationship" transform="translate(243.83269323375328 15.410623199495078) rotate(201.63990291382606)"><path class="outline" fill="#A5ABB6" stroke="none" d="M 24.018736134675446,6.953439040707552 L 24.277555179777966,5.987513214418485 A 99.58827927728822 99.58827927728822 0 0 0 30.748866159123537,7.492057799503542 L 30.555027762610468,8.47309127295756 A 100.58827927728822 100.58827927728822 0 0 1 24.018736134675446,6.953439040707552 Z M 66.31132455327683,9.058253331508865 L 66.14969114882493,8.071402460016486 A 99.58827927728822 99.58827927728822 0 0 0 72.66676815193308,6.779416571755428 L 71.98554733587984,3.8577837748804082 L 79.59744814731701,5.67684013377703 L 73.5750625733374,10.674926967588789 L 72.89384175728416,7.753294170713769 A 100.58827927728822 100.58827927728822 0 0 1 66.31132455327683,9.058253331508865"/><text text-anchor="middle" pointer-events="none" font-size="8px" fill="#000000" x="48.415144410492985" y="12.867501281194237" transform="rotate(180 48.415144410492985 9.867501281194237)" font-family="sans-serif">WROTE</text></g><g class="relationship" transform="translate(243.83269323375328 15.410623199495078) rotate(201.63990291382606)"><path class="outline" fill="#A5ABB6" stroke="none" d="M 24.018736134675446,-6.953439040707552 L 24.277555179777966,-5.987513214418485 A 99.58827927728822 99.58827927728822 0 0 1 25.35549274839991,-6.26989169797065 L 25.107497643387976,-7.238652983267571 A 100.58827927728822 100.58827927728822 0 0 0 24.018736134675446,-6.953439040707552 Z M 71.79633056580514,-8.002729133104538 L 71.58016788565692,-7.026371772446495 A 99.58827927728822 99.58827927728822 0 0 1 72.66676815193308,-6.779416571755428 L 71.98554733587984,-3.8577837748804082 L 79.59744814731701,-5.67684013377703 L 73.5750625733374,-10.674926967588789 L 72.89384175728416,-7.753294170713769 A 100.58827927728822 100.58827927728822 0 0 0 71.79633056580514,-8.002729133104538"/><text text-anchor="middle" pointer-events="none" font-size="8px" fill="#000000" x="48.41514441049298" y="-6.867501281194237" transform="rotate(180 48.41514441049298 -9.867501281194237)" font-family="sans-serif">DIRECTED</text></g><g class="relationship" transform="translate(46.29501943117572 -47.40926382412407) rotate(373.6392326600459)"><path class="outline" fill="#A5ABB6" stroke="none" d="M 24.018736134675446,6.953439040707552 L 24.277555179777966,5.987513214418485 A 99.39485173432213 99.39485173432213 0 0 0 30.701163740294298,7.482187128090473 L 30.50697187103069,8.463150694137596 A 100.39485173432213 100.39485173432213 0 0 1 24.018736134675446,6.953439040707552 Z M 66.26286510348963,9.048816959751846 L 66.10090431537316,8.062019765231767 A 99.39485173432213 99.39485173432213 0 0 0 72.57001812321845,6.778523139566261 L 71.88888076240893,3.85687088515448 L 79.5007296103142,5.6761446734126775 L 73.47820127096448,10.674059478781968 L 72.79706391015496,7.752407224370188 A 100.39485173432213 100.39485173432213 0 0 1 66.26286510348963,9.048816959751846"/><text text-anchor="middle" pointer-events="none" font-size="8px" fill="#000000" x="48.36682022014639" y="12.86091293863609" font-family="sans-serif">WROTE</text></g><g class="relationship" transform="translate(46.29501943117572 -47.40926382412407) rotate(373.6392326600459)"><path class="outline" fill="#A5ABB6" stroke="none" d="M 24.018736134675446,-6.953439040707552 L 24.277555179777966,-5.987513214418485 A 99.39485173432213 99.39485173432213 0 0 1 25.308351989812007,-6.257800314764793 L 25.0599036710806,-7.226445468017275 A 100.39485173432213 100.39485173432213 0 0 0 24.018736134675446,-6.953439040707552 Z M 71.74751383579726,-7.99116858982147 L 71.53092227092719,-7.014906281818568 A 99.39485173432213 99.39485173432213 0 0 1 72.57001812321845,-6.778523139566261 L 71.88888076240893,-3.85687088515448 L 79.5007296103142,-5.6761446734126775 L 73.47820127096448,-10.674059478781968 L 72.79706391015496,-7.752407224370188 A 100.39485173432213 100.39485173432213 0 0 0 71.74751383579726,-7.99116858982147"/><text text-anchor="middle" pointer-events="none" font-size="8px" fill="#000000" x="48.36682022014635" y="-6.8609129386360905" font-family="sans-serif">DIRECTED</text></g><g class="relationship" transform="translate(-60.862108093040824 96.15303565938245) rotate(431.8327523062564)"><path class="outline" fill="#A5ABB6" stroke="none" d="M 21.40063509461097,12.933012701892217 L 21.90063509461097,12.06698729810778 A 57.17605834337892 57.17605834337892 0 0 0 24.062536431128333,13.25374489355712 L 23.60034773535525,14.140526495474738 A 58.17605834337892 58.17605834337892 0 0 1 21.40063509461097,12.933012701892217 Z M 74.06879377045051,15.734066102765716 L 73.66347016868687,14.819892827148152 A 57.17605834337892 57.17605834337892 0 0 0 75.89593408487661,13.771887177305041 L 74.56282698263519,11.08435569768411 L 82.38902538769902,11.109225852011871 L 77.67341022119851,17.355262483466284 L 76.34030311895708,14.667731003845352 A 58.17605834337892 58.17605834337892 0 0 1 74.06879377045051,15.734066102765716"/><text text-anchor="middle" pointer-events="none" font-size="8px" fill="#000000" x="48.66845165600553" y="23.19839720856998" font-family="sans-serif">PRODUCED</text></g><g class="relationship" transform="translate(-60.862108093040824 96.15303565938245) rotate(431.8327523062564)"><path class="outline" fill="#A5ABB6" stroke="none" d="M 25 0.5 L 31.005841775603386 0.5 L 31.005841775603386 -0.5 L 25 -0.5 Z M 66.77927927560339 0.5 L 72.78512105120677 0.5 L 72.78512105120677 3.5 L 79.78512105120677 0 L 72.78512105120677 -3.5 L 72.78512105120677 -0.5 L 66.77927927560339 -0.5 Z"/><text text-anchor="middle" pointer-events="none" font-size="8px" fill="#000000" x="48.892560525603386" y="3" font-family="sans-serif">WROTE</text></g><g class="relationship" transform="translate(-60.862108093040824 96.15303565938245) rotate(431.8327523062564)"><path class="outline" fill="#A5ABB6" stroke="none" d="M 21.40063509461097,-12.933012701892217 L 21.90063509461097,-12.06698729810778 A 57.17605834337892 57.17605834337892 0 0 1 26.235299411492363,-14.328244152859256 L 25.811111988337885,-15.233818572792572 A 58.17605834337892 58.17605834337892 0 0 0 21.40063509461097,-12.933012701892217 Z M 71.79346073430924,-16.685709798292514 L 71.42724829100035,-15.755178527261961 A 57.17605834337892 57.17605834337892 0 0 1 75.89593408487661,-13.771887177305041 L 74.56282698263519,-11.08435569768411 L 82.38902538769902,-11.109225852011871 L 77.67341022119851,-17.355262483466284 L 76.34030311895708,-14.667731003845352 A 58.17605834337892 58.17605834337892 0 0 0 71.79346073430924,-16.685709798292514"/><text text-anchor="middle" pointer-events="none" font-size="8px" fill="#000000" x="48.66845165600553" y="-17.19839720856998" font-family="sans-serif">DIRECTED</text></g></g><g class="layer nodes"><g class="node" transform="translate(136.58546929599862,258.88469340384427)"><circle class="outline" cx="0" cy="0" r="25" fill="#F79767" stroke="#f36924" stroke-width="2px"/><text text-anchor="middle" pointer-events="none" font-family="sans-serif" dy="1.5625" font-size="25" fill="#FFFFFF"/><text text-anchor="middle" pointer-events="none" font-family="sans-serif" dy="1.5625" font-size="25" fill="#FFFFFF"/><text text-anchor="middle" pointer-events="none" x="0" y="0" font-size="10px" fill="#FFFFFF" font-family="sans-serif"> Cameron</text><text text-anchor="middle" pointer-events="none" x="0" y="10" font-size="10px" fill="#FFFFFF" font-family="sans-serif"> Crowe</text></g><g class="node" transform="translate(227.49622949808582,205.99221005941214)"><circle class="outline" cx="0" cy="0" r="25" fill="#57C7E3" stroke="#23b3d7" stroke-width="2px"/><text text-anchor="middle" pointer-events="none" font-family="sans-serif" dy="1.5625" font-size="25" fill="#2A2C34"/><text text-anchor="middle" pointer-events="none" font-family="sans-serif" dy="1.5625" font-size="25" fill="#2A2C34"/><text text-anchor="middle" pointer-events="none" x="0" y="0" font-size="10px" fill="#2A2C34" font-family="sans-serif"> Jerry</text><text text-anchor="middle" pointer-events="none" x="0" y="10" font-size="10px" fill="#2A2C34" font-family="sans-serif"> Maguire</text></g><g class="node" transform="translate(243.83269323375328,15.410623199495078)"><circle class="outline" cx="0" cy="0" r="25" fill="#F79767" stroke="#f36924" stroke-width="2px"/><text text-anchor="middle" pointer-events="none" font-family="sans-serif" dy="1.5625" font-size="25" fill="#FFFFFF"/><text text-anchor="middle" pointer-events="none" font-family="sans-serif" dy="1.5625" font-size="25" fill="#FFFFFF"/><text text-anchor="middle" pointer-events="none" x="0" y="0" font-size="10px" fill="#FFFFFF" font-family="sans-serif"> Andy</text><text text-anchor="middle" pointer-events="none" x="0" y="10" font-size="10px" fill="#FFFFFF" font-family="sans-serif"> Wacho…</text></g><g class="node" transform="translate(147.2143175633384,-22.9211561058925)"><circle class="outline" cx="0" cy="0" r="25" fill="#57C7E3" stroke="#23b3d7" stroke-width="2px"/><text text-anchor="middle" pointer-events="none" font-family="sans-serif" dy="1.5625" font-size="25" fill="#2A2C34"/><text text-anchor="middle" pointer-events="none" font-family="sans-serif" dy="1.5625" font-size="25" fill="#2A2C34"/><text text-anchor="middle" pointer-events="none" x="0" y="0" font-size="10px" fill="#2A2C34" font-family="sans-serif"> Speed</text><text text-anchor="middle" pointer-events="none" x="0" y="10" font-size="10px" fill="#2A2C34" font-family="sans-serif"> Racer</text></g><g class="node" transform="translate(46.29501943117572,-47.40926382412407)"><circle class="outline" cx="0" cy="0" r="25" fill="#F79767" stroke="#f36924" stroke-width="2px"/><text text-anchor="middle" pointer-events="none" font-family="sans-serif" dy="1.5625" font-size="25" fill="#FFFFFF"/><text text-anchor="middle" pointer-events="none" font-family="sans-serif" dy="1.5625" font-size="25" fill="#FFFFFF"/><text text-anchor="middle" pointer-events="none" x="0" y="0" font-size="10px" fill="#FFFFFF" font-family="sans-serif"> Lana</text><text text-anchor="middle" pointer-events="none" x="0" y="10" font-size="10px" fill="#FFFFFF" font-family="sans-serif"> Wacho…</text></g><g class="node" transform="translate(-60.862108093040824,96.15303565938245)"><circle class="outline" cx="0" cy="0" r="25" fill="#F79767" stroke="#f36924" stroke-width="2px"/><text text-anchor="middle" pointer-events="none" font-family="sans-serif" dy="1.5625" font-size="25" fill="#FFFFFF"/><text text-anchor="middle" pointer-events="none" font-family="sans-serif" dy="1.5625" font-size="25" fill="#FFFFFF"/><text text-anchor="middle" pointer-events="none" x="0" y="0" font-size="10px" fill="#FFFFFF" font-family="sans-serif"> Nancy</text><text text-anchor="middle" pointer-events="none" x="0" y="10" font-size="10px" fill="#FFFFFF" font-family="sans-serif"> Meyers</text></g><g class="node" transform="translate(-28.190963476717073,195.71466432813875)"><circle class="outline" cx="0" cy="0" r="25" fill="#57C7E3" stroke="#23b3d7" stroke-width="2px"/><text text-anchor="middle" pointer-events="none" font-family="sans-serif" dy="1.5625" font-size="25" fill="#2A2C34"/><text text-anchor="middle" pointer-events="none" x="0" y="5" font-size="10px" fill="#2A2C34" font-family="sans-serif"> Somethi…</text></g></g></svg>