<svg xmlns="http://www.w3.org/2000/svg" width="163.52407836914062" height="243.46884155273438" viewBox="-1.503793716430664 -20.78386688232422 163.52407836914062 243.46884155273438"><title>Neo4j Graph Visualization</title><desc>Created using Neo4j (http://www.neo4j.com/)</desc><g class="layer relationships"><g class="relationship" transform="translate(133.0202852247942 8.216131797882657) rotate(522.070753199637)"><path class="outline" fill="#A5ABB6" stroke="none" d="M 21.40063509461097,12.933012701892217 L 21.90063509461097,12.06698729810778 A 59.93781765677241 59.93781765677241 0 0 0 23.469751942894884,12.941828718928065 L 22.99593102164062,13.822449939761263 A 60.93781765677241 60.93781765677241 0 0 1 21.40063509461097,12.933012701892217 Z M 77.38225619862459,15.49934648179083 L 76.963588230905,14.59120710217691 A 59.93781765677241 59.93781765677241 0 0 0 78.58362129373013,13.814696915183324 L 77.24653170246198,11.12914456512154 L 85.07275837575231,11.142413260567933 L 80.366407415421,17.395433381932367 L 79.02931782415284,14.709881031870585 A 60.93781765677241 60.93781765677241 0 0 1 77.38225619862459,15.49934648179083"/><text text-anchor="middle" pointer-events="none" font-size="8px" fill="#000000" x="50.00694653616837" y="23.568424254490708" transform="rotate(180 50.00694653616837 20.568424254490708)" font-family="sans-serif">PublicTrans…</text></g><g class="relationship" transform="translate(30.78609117418264 41.29451619387579) rotate(451.7673772753288)"><path class="outline" fill="#A5ABB6" stroke="none" d="M 25 0.5 L 40.16711945475718 0.5 L 40.16711945475718 -0.5 L 25 -0.5 Z M 59.50305695475718 0.5 L 74.67017640951435 0.5 L 74.67017640951435 3.5 L 81.67017640951435 0 L 74.67017640951435 -3.5 L 74.67017640951435 -0.5 L 59.50305695475718 -0.5 Z"/><text text-anchor="middle" pointer-events="none" font-size="8px" fill="#000000" x="49.83508820475718" y="3" transform="rotate(180 49.83508820475718 0)" font-family="sans-serif">trek</text></g><g class="relationship" transform="translate(27.496205753206745 147.9139477678331) rotate(385.24261151299197)"><path class="outline" fill="#A5ABB6" stroke="none" d="M 25 0.5 L 40.49693567357677 0.5 L 40.49693567357677 -0.5 L 25 -0.5 Z M 59.83287317357677 0.5 L 75.32980884715354 0.5 L 75.32980884715354 3.5 L 82.32980884715354 0 L 75.32980884715354 -3.5 L 75.32980884715354 -0.5 L 59.83287317357677 -0.5 Z"/><text text-anchor="middle" pointer-events="none" font-size="8px" fill="#000000" x="50.16490442357677" y="3" font-family="sans-serif">trek</text></g><g class="relationship" transform="translate(133.0202852247942 8.216131797882657) rotate(522.070753199637)"><path class="outline" fill="#A5ABB6" stroke="none" d="M 25 0.5 L 40.558211896466915 0.5 L 40.558211896466915 -0.5 L 25 -0.5 Z M 59.894149396466915 0.5 L 75.45236129293383 0.5 L 75.45236129293383 3.5 L 82.45236129293383 0 L 75.45236129293383 -3.5 L 75.45236129293383 -0.5 L 59.894149396466915 -0.5 Z"/><text text-anchor="middle" pointer-events="none" font-size="8px" fill="#000000" x="50.226180646466915" y="3" transform="rotate(180 50.226180646466915 0)" font-family="sans-serif">trek</text></g><g class="relationship" transform="translate(133.0202852247942 8.216131797882657) rotate(522.070753199637)"><path class="outline" fill="#A5ABB6" stroke="none" d="M 21.40063509461097,-12.933012701892217 L 21.90063509461097,-12.06698729810778 A 59.93781765677241 59.93781765677241 0 0 1 39.20347111070249,-18.743549512447025 L 38.992150890723416,-19.72096639619111 A 60.93781765677241 60.93781765677241 0 0 0 21.40063509461097,-12.933012701892217 Z M 61.0530288355882,-20.401170653777825 L 60.90232627901953,-19.412591501942394 A 59.93781765677241 59.93781765677241 0 0 1 78.58362129373013,-13.814696915183324 L 77.24653170246198,-11.12914456512154 L 85.07275837575231,-11.142413260567933 L 80.366407415421,-17.395433381932367 L 79.02931782415284,-14.709881031870585 A 60.93781765677241 60.93781765677241 0 0 0 61.0530288355882,-20.401170653777825"/><text text-anchor="middle" pointer-events="none" font-size="8px" fill="#000000" x="50.006946536168385" y="-17.568424254490708" transform="rotate(180 50.006946536168385 -20.568424254490708)" font-family="sans-serif">road</text></g></g><g class="layer nodes"><g class="node" transform="translate(133.0202852247942,8.216131797882657)"><circle class="outline" cx="0" cy="0" r="25" fill="#F16667" stroke="#eb2728" stroke-width="2px"/><text text-anchor="middle" pointer-events="none" font-family="sans-serif" dy="1.5625" font-size="25" fill="#FFFFFF"/><text text-anchor="middle" pointer-events="none" x="0" y="5" font-size="10px" fill="#FFFFFF" font-family="sans-serif"> Darjeeling</text></g><g class="node" transform="translate(124.57710676296523,193.684970547535)"><circle class="outline" cx="0" cy="0" r="25" fill="#D9C8AE" stroke="#c0a378" stroke-width="2px"/><text text-anchor="middle" pointer-events="none" font-family="sans-serif" dy="1.5625" font-size="25" fill="#2A2C34"/><text text-anchor="middle" pointer-events="none" x="0" y="5" font-size="10px" fill="#2A2C34" font-family="sans-serif"> Sandak…</text></g><g class="node" transform="translate(30.78609117418264,41.29451619387579)"><circle class="outline" cx="0" cy="0" r="25" fill="#F16667" stroke="#eb2728" stroke-width="2px"/><text text-anchor="middle" pointer-events="none" font-family="sans-serif" dy="1.5625" font-size="25" fill="#FFFFFF"/><text text-anchor="middle" pointer-events="none" x="0" y="5" font-size="10px" fill="#FFFFFF" font-family="sans-serif"> Rimbik</text></g><g class="node" transform="translate(27.496205753206745,147.9139477678331)"><circle class="outline" cx="0" cy="0" r="25" fill="#8DCC93" stroke="#5db665" stroke-width="2px"/><text text-anchor="middle" pointer-events="none" font-family="sans-serif" dy="1.5625" font-size="25" fill="#2A2C34"/><text text-anchor="middle" pointer-events="none" x="0" y="5" font-size="10px" fill="#2A2C34" font-family="sans-serif"> BhikeBh…</text></g></g></svg>