<svg xmlns="http://www.w3.org/2000/svg" width="387.3629150390625" height="354.9805908203125" viewBox="-75.17735290527344 -76.88097381591797 387.3629150390625 354.9805908203125"><title>Neo4j Graph Visualization</title><desc>Created using Neo4j (http://www.neo4j.com/)</desc><g class="layer relationships"><g class="relationship" transform="translate(27.927138752250805 -47.88097285483187) rotate(386.5089904925119)"><path class="outline" fill="#A5ABB6" stroke="none" d="M 24.018736134675446,-6.953439040707552 L 24.277555179777966,-5.987513214418485 A 178.07922052042983 178.07922052042983 0 0 1 57.25786913177901,-11.572189338821033 L 57.184250324276455,-12.569475792745834 A 179.07922052042983 179.07922052042983 0 0 0 24.018736134675446,-6.953439040707552 Z M 79.2420254798543,-12.835402785355058 L 79.19247100632808,-11.836631362979801 A 178.07922052042983 178.07922052042983 0 0 1 112.29783663420015,-7.048679563730612 L 111.59146582590172,-4.133025215015075 L 119.21875858258613,-5.886423402486871 L 113.23966437859805,-10.936218695351329 L 112.53329357029962,-8.020564346635792 A 179.07922052042983 179.07922052042983 0 0 0 79.2420254798543,-12.835402785355058"/><text text-anchor="middle" pointer-events="none" font-size="8px" fill="#000000" x="68.21506685332196" y="-9.542439084910882" font-family="sans-serif">road</text></g><g class="relationship" transform="translate(156.35437976837682 16.175650906091953) rotate(377.91930665603763)"><path class="outline" fill="#A5ABB6" stroke="none" d="M 21.40063509461097,-12.933012701892217 L 21.90063509461097,-12.06698729810778 A 86.50277496349625 86.50277496349625 0 0 1 40.238996430557265,-19.991006183181824 L 39.95099380686901,-20.948635802997686 A 87.50277496349625 87.50277496349625 0 0 0 21.40063509461097,-12.933012701892217 Z M 86.11491529654839,-22.108037850092416 L 85.8753469773844,-21.13715834137213 A 86.50277496349625 86.50277496349625 0 0 1 104.58835967097072,-14.143680829545985 L 103.22066931266995,-11.473582875572927 L 111.04653662329132,-11.397419652506372 L 106.41194681537173,-17.7038114348434 L 105.04425645707097,-15.03371348087034 A 87.50277496349625 87.50277496349625 0 0 0 86.11491529654839,-22.108037850092416"/><text text-anchor="middle" pointer-events="none" font-size="8px" fill="#000000" x="62.96764580487505" y="-21.12873577268556" font-family="sans-serif">twowheeler</text></g><g class="relationship" transform="translate(283.18558226005536 57.1882144247042) rotate(534.7814129381951)"><path class="outline" fill="#A5ABB6" stroke="none" d="M 21.40063509461097,12.933012701892217 L 21.90063509461097,12.06698729810778 A 44.4354527684039 44.4354527684039 0 0 0 23.08525984178881,12.727036559288173 L 22.611919292145988,13.607916076625152 A 45.4354527684039 45.4354527684039 0 0 1 21.40063509461097,12.933012701892217 Z M 62.733152440822984,15.031950797088207 L 62.323454950695734,14.11972935106568 A 44.4354527684039 44.4354527684039 0 0 0 63.55189442736746,13.545327687623267 L 62.23986551321361,10.847443307516464 L 70.0656294666423,10.933574284615418 L 65.30126631290592,17.142506861099005 L 63.98923739875208,14.444622480992201 A 45.4354527684039 45.4354527684039 0 0 1 62.733152440822984,15.031950797088207"/><text text-anchor="middle" pointer-events="none" font-size="8px" fill="#000000" x="42.524457909476006" y="21.491931599503353" transform="rotate(180 42.524457909476006 18.491931599503353)" font-family="sans-serif">twowhe…</text></g><g class="relationship" transform="translate(191.02119955152585 65.60597746180285) rotate(463.9361455670825)"><path class="outline" fill="#A5ABB6" stroke="none" d="M 25 0.5 L 50.290826228762036 0.5 L 50.290826228762036 -0.5 L 25 -0.5 Z M 69.62676372876203 0.5 L 94.91758995752407 0.5 L 94.91758995752407 3.5 L 101.91758995752407 0 L 94.91758995752407 -3.5 L 94.91758995752407 -0.5 L 69.62676372876203 -0.5 Z"/><text text-anchor="middle" pointer-events="none" font-size="8px" fill="#000000" x="59.958794978762036" y="3" transform="rotate(180 59.958794978762036 0)" font-family="sans-serif">trek</text></g><g class="relationship" transform="translate(283.18558226005536 57.1882144247042) rotate(534.7814129381951)"><path class="outline" fill="#A5ABB6" stroke="none" d="M 25 0.5 L 31.76814027543284 0.5 L 31.76814027543284 -0.5 L 25 -0.5 Z M 53.77985902543284 0.5 L 60.54799930086568 0.5 L 60.54799930086568 3.5 L 67.54799930086568 0 L 60.54799930086568 -3.5 L 60.54799930086568 -0.5 L 53.77985902543284 -0.5 Z"/><text text-anchor="middle" pointer-events="none" font-size="8px" fill="#000000" x="42.77399965043284" y="3" transform="rotate(180 42.77399965043284 0)" font-family="sans-serif">road</text></g><g class="relationship" transform="translate(283.18558226005536 57.1882144247042) rotate(534.7814129381951)"><path class="outline" fill="#A5ABB6" stroke="none" d="M 21.40063509461097,-12.933012701892217 L 21.90063509461097,-12.06698729810778 A 44.4354527684039 44.4354527684039 0 0 1 33.09769987497576,-16.631875678026944 L 32.84968481228974,-17.600631854100598 A 45.4354527684039 45.4354527684039 0 0 0 21.40063509461097,-12.933012701892217 Z M 52.23807634445698,-18.288789733331903 L 52.05936755273365,-17.30488772207225 A 44.4354527684039 44.4354527684039 0 0 1 63.55189442736746,-13.545327687623267 L 62.23986551321361,-10.847443307516464 L 70.0656294666423,-10.933574284615418 L 65.30126631290592,-17.142506861099005 L 63.98923739875208,-14.444622480992201 A 45.4354527684039 45.4354527684039 0 0 0 52.23807634445698,-18.288789733331903"/><text text-anchor="middle" pointer-events="none" font-size="8px" fill="#000000" x="42.524457909476" y="-15.491931599503353" transform="rotate(180 42.524457909476 -18.491931599503353)" font-family="sans-serif">trek</text></g><g class="relationship" transform="translate(156.35437976837682 16.175650906091953) rotate(377.91930665603763)"><path class="outline" fill="#A5ABB6" stroke="none" d="M 25 0.5 L 52.14281707820005 0.5 L 52.14281707820005 -0.5 L 25 -0.5 Z M 74.15453582820005 0.5 L 101.2973529064001 0.5 L 101.2973529064001 3.5 L 108.2973529064001 0 L 101.2973529064001 -3.5 L 101.2973529064001 -0.5 L 74.15453582820005 -0.5 Z"/><text text-anchor="middle" pointer-events="none" font-size="8px" fill="#000000" x="63.14867645320005" y="3" font-family="sans-serif">road</text></g><g class="relationship" transform="translate(156.35437976837682 16.175650906091953) rotate(377.91930665603763)"><path class="outline" fill="#A5ABB6" stroke="none" d="M 21.40063509461097,12.933012701892217 L 21.90063509461097,12.06698729810778 A 86.50277496349625 86.50277496349625 0 0 0 53.403981449118994,22.85469125804437 L 53.268170301647736,23.845426001667775 A 87.50277496349625 87.50277496349625 0 0 1 21.40063509461097,12.933012701892217 Z M 72.66911459848221,24.332678683144366 L 72.58320769981232,23.336375514043254 A 86.50277496349625 86.50277496349625 0 0 0 104.58835967097072,14.143680829545985 L 103.22066931266995,11.473582875572927 L 111.04653662329132,11.397419652506372 L 106.41194681537173,17.7038114348434 L 105.04425645707097,15.03371348087034 A 87.50277496349625 87.50277496349625 0 0 1 72.66911459848221,24.332678683144366"/><text text-anchor="middle" pointer-events="none" font-size="8px" fill="#000000" x="62.967645804875026" y="27.12873577268556" font-family="sans-serif">trek</text></g><g class="relationship" transform="translate(27.927138752250805 -47.88097285483187) rotate(386.5089904925119)"><path class="outline" fill="#A5ABB6" stroke="none" d="M 24.018736134675446,6.953439040707552 L 24.277555179777966,5.987513214418485 A 178.07922052042983 178.07922052042983 0 0 0 58.58874903340112,11.66542253301921 L 58.522603753117146,12.66323253592364 A 179.07922052042983 179.07922052042983 0 0 1 24.018736134675446,6.953439040707552 Z M 77.90180072069882,12.8968667774744 L 77.8597302241257,11.89775213274234 A 178.07922052042983 178.07922052042983 0 0 0 112.29783663420015,7.048679563730612 L 111.59146582590172,4.133025215015075 L 119.21875858258613,5.886423402486871 L 113.23966437859805,10.936218695351329 L 112.53329357029962,8.020564346635792 A 179.07922052042983 179.07922052042983 0 0 1 77.90180072069882,12.8968667774744"/><text text-anchor="middle" pointer-events="none" font-size="8px" fill="#000000" x="68.21506685332201" y="15.542439084910882" font-family="sans-serif">trek</text></g><g class="relationship" transform="translate(27.927138752250805 -47.88097285483187) rotate(360.7042673972603)"><path class="outline" fill="#A5ABB6" stroke="none" d="M 21.40063509461097,12.933012701892217 L 21.90063509461097,12.06698729810778 A 34.570659331239156 34.570659331239156 0 0 0 28.479519044012136,14.998916049181567 L 28.169821574443088,15.94975119648236 A 35.570659331239156 35.570659331239156 0 0 1 21.40063509461097,12.933012701892217 Z M 47.5190975882359,16.70870325526024 L 47.28482774380018,15.736531644901213 A 34.570659331239156 34.570659331239156 0 0 0 54.07314891695863,13.328915423176916 L 52.781257083416804,10.621330615561844 L 60.6061621069841,10.765765279515179 L 55.79567136168106,16.939028499997015 L 54.50377952813923,14.23144369238194 A 35.570659331239156 35.570659331239156 0 0 1 47.5190975882359,16.70870325526024"/><text text-anchor="middle" pointer-events="none" font-size="8px" fill="#000000" x="37.81141733487095" y="20.171630299479382" font-family="sans-serif">trek</text></g><g class="relationship" transform="translate(111.09022472266747 -46.85869860577484) rotate(494.72748287179564)"><path class="outline" fill="#A5ABB6" stroke="none" d="M 24.018736134675446,-6.953439040707552 L 24.277555179777966,-5.987513214418485 A 176.7062931523985 176.7062931523985 0 0 1 44.791878769187974,-10.199550340839153 L 44.64915249714656,-11.189312540192702 A 177.7062931523985 177.7062931523985 0 0 0 24.018736134675446,-6.953439040707552 Z M 91.10832350355594,-11.752031402455259 L 90.98961181421595,-10.759102636221712 A 176.7062931523985 176.7062931523985 0 0 1 111.5999356434645,-7.04517200427943 L 110.8938924290809,-4.129438309405552 L 118.52098813390083,-5.8836934531966785 L 112.54132659597597,-10.932816930777934 L 111.83528338159238,-8.017083235904057 A 177.7062931523985 177.7062931523985 0 0 0 91.10832350355594,-11.752031402455259"/><text text-anchor="middle" pointer-events="none" font-size="8px" fill="#000000" x="67.86632350280816" y="-9.495637194622958" transform="rotate(180 67.86632350280816 -12.495637194622958)" font-family="sans-serif">twowheeler</text></g><g class="relationship" transform="translate(10.583577160204504 54.60860919762217) rotate(427.67844862766634)"><path class="outline" fill="#A5ABB6" stroke="none" d="M 24.018736134675446,-6.953439040707552 L 24.277555179777966,-5.987513214418485 A 116.05039413244639 116.05039413244639 0 0 1 29.603970205453496,-7.2807159190773945 L 29.39104859194088,-8.257785203467805 A 117.05039413244639 117.05039413244639 0 0 0 24.018736134675446,-6.953439040707552 Z M 75.74143784147552,-8.963777828531107 L 75.55837284090559,-7.980677017033969 A 116.05039413244639 116.05039413244639 0 0 1 80.92170302012548,-6.850296705037868 L 80.23386143597241,-3.9302155494687634 L 87.8498659804789,-5.732013201275564 L 81.83882513232956,-10.743738245796674 L 81.1509835481765,-7.82365709022757 A 117.05039413244639 117.05039413244639 0 0 0 75.74143784147552,-8.963777828531107"/><text text-anchor="middle" pointer-events="none" font-size="8px" fill="#000000" x="52.53855916588119" y="-7.428316836174858" font-family="sans-serif">twowheeler</text></g><g class="relationship" transform="translate(53.191477926913855 158.38620186185722) rotate(375.82432382011007)"><path class="outline" fill="#A5ABB6" stroke="none" d="M 24.018736134675446,6.953439040707552 L 24.277555179777966,5.987513214418485 A 114.66313384467854 114.66313384467854 0 0 0 29.261320675775323,7.204098531009649 L 29.04596604097532,8.18063443985794 A 115.66313384467854 115.66313384467854 0 0 1 24.018736134675446,6.953439040707552 Z M 75.39121753379688,8.890703116490442 L 75.2058805225011,7.908028097858178 A 114.66313384467854 114.66313384467854 0 0 0 80.22457731751986,6.844693328696837 L 79.53725912430221,3.9244889349476573 L 87.15294060180423,5.727651610147163 L 81.1410015751434,10.738299187029076 L 80.45368338192576,7.818094793279896 A 115.66313384467854 115.66313384467854 0 0 1 75.39121753379688,8.890703116490442"/><text text-anchor="middle" pointer-events="none" font-size="8px" fill="#000000" x="52.19031817571074" y="13.381050340305762" font-family="sans-serif">twowheeler</text></g><g class="relationship" transform="translate(53.191477926913855 158.38620186185722) rotate(375.82432382011007)"><path class="outline" fill="#A5ABB6" stroke="none" d="M 24.018736134675446,-6.953439040707552 L 24.277555179777966,-5.987513214418485 A 114.66313384467854 114.66313384467854 0 0 1 42.59060155907072,-9.330049470691165 L 42.49149423442492,-10.32512622059619 A 115.66313384467854 115.66313384467854 0 0 0 24.018736134675446,-6.953439040707552 Z M 61.886303005283324,-10.622279558939752 L 61.81772674635181,-9.624633681530867 A 114.66313384467854 114.66313384467854 0 0 1 80.22457731751986,-6.844693328696837 L 79.53725912430221,-3.9244889349476573 L 87.15294060180423,-5.727651610147163 L 81.1410015751434,-10.738299187029076 L 80.45368338192576,-7.818094793279896 A 115.66313384467854 115.66313384467854 0 0 0 61.886303005283324,-10.622279558939752"/><text text-anchor="middle" pointer-events="none" font-size="8px" fill="#000000" x="52.19031817571074" y="-7.381050340305762" font-family="sans-serif">trek</text></g><g class="relationship" transform="translate(10.583577160204504 54.60860919762217) rotate(427.67844862766634)"><path class="outline" fill="#A5ABB6" stroke="none" d="M 24.018736134675446,6.953439040707552 L 24.277555179777966,5.987513214418485 A 116.05039413244639 116.05039413244639 0 0 0 42.93790927104076,9.382944261804425 L 42.839885492776936,10.378128334674813 A 117.05039413244639 117.05039413244639 0 0 1 24.018736134675446,6.953439040707552 Z M 62.234262192626176,10.673536574810143 L 62.16659343440948,9.675828732222243 A 116.05039413244639 116.05039413244639 0 0 0 80.92170302012548,6.850296705037868 L 80.23386143597241,3.9302155494687634 L 87.8498659804789,5.732013201275564 L 81.83882513232956,10.743738245796674 L 81.1509835481765,7.82365709022757 A 117.05039413244639 117.05039413244639 0 0 1 62.234262192626176,10.673536574810143"/><text text-anchor="middle" pointer-events="none" font-size="8px" fill="#000000" x="52.53855916588118" y="13.428316836174858" font-family="sans-serif">trek</text></g><g class="relationship" transform="translate(111.09022472266747 -46.85869860577484) rotate(494.72748287179564)"><path class="outline" fill="#A5ABB6" stroke="none" d="M 24.018736134675446,6.953439040707552 L 24.277555179777966,5.987513214418485 A 176.7062931523985 176.7062931523985 0 0 0 58.2403621997732,11.616068742672383 L 58.173742348112555,12.613847172668102 A 177.7062931523985 177.7062931523985 0 0 1 24.018736134675446,6.953439040707552 Z M 77.55319808051098,12.848573385916666 L 77.51076464323842,11.84947408984985 A 176.7062931523985 176.7062931523985 0 0 0 111.5999356434645,7.04517200427943 L 110.8938924290809,4.129438309405552 L 118.52098813390083,5.8836934531966785 L 112.54132659597597,10.932816930777934 L 111.83528338159238,8.017083235904057 A 177.7062931523985 177.7062931523985 0 0 1 77.55319808051098,12.848573385916666"/><text text-anchor="middle" pointer-events="none" font-size="8px" fill="#000000" x="67.86632350280817" y="15.495637194622958" transform="rotate(180 67.86632350280817 12.495637194622958)" font-family="sans-serif">trek</text></g><g class="relationship" transform="translate(111.09022472266747 -46.85869860577484) rotate(414.59780330518413)"><path class="outline" fill="#A5ABB6" stroke="none" d="M 25 0.5 L 55.81982745352569 0.5 L 55.81982745352569 -0.5 L 25 -0.5 Z M 75.15576495352569 0.5 L 105.97559240705138 0.5 L 105.97559240705138 3.5 L 112.97559240705138 0 L 105.97559240705138 -3.5 L 105.97559240705138 -0.5 L 75.15576495352569 -0.5 Z"/><text text-anchor="middle" pointer-events="none" font-size="8px" fill="#000000" x="65.48779620352569" y="3" font-family="sans-serif">trek</text></g><g class="relationship" transform="translate(27.927138752250805 -47.88097285483187) rotate(360.7042673972603)"><path class="outline" fill="#A5ABB6" stroke="none" d="M 25 0.5 L 27.078825043554858 0.5 L 27.078825043554858 -0.5 L 25 -0.5 Z M 49.09054379355486 0.5 L 51.169368837109715 0.5 L 51.169368837109715 3.5 L 58.169368837109715 0 L 51.169368837109715 -3.5 L 51.169368837109715 -0.5 L 49.09054379355486 -0.5 Z"/><text text-anchor="middle" pointer-events="none" font-size="8px" fill="#000000" x="38.08468441855486" y="3" font-family="sans-serif">road</text></g><g class="relationship" transform="translate(27.927138752250805 -47.88097285483187) rotate(360.7042673972603)"><path class="outline" fill="#A5ABB6" stroke="none" d="M 21.40063509461097,-12.933012701892217 L 21.90063509461097,-12.06698729810778 A 34.570659331239156 34.570659331239156 0 0 1 22.842403301096503,-12.591313920574812 L 22.36964513636097,-13.472506134382837 A 35.570659331239156 35.570659331239156 0 0 0 21.40063509461097,-12.933012701892217 Z M 53.495489613723265,-14.69337991438654 L 53.09320511513582,-13.777865205495289 A 34.570659331239156 34.570659331239156 0 0 1 54.07314891695863,-13.328915423176916 L 52.781257083416804,-10.621330615561844 L 60.6061621069841,-10.765765279515179 L 55.79567136168106,-16.939028499997015 L 54.50377952813923,-14.23144369238194 A 35.570659331239156 35.570659331239156 0 0 0 53.495489613723265,-14.69337991438654"/><text text-anchor="middle" pointer-events="none" font-size="8px" fill="#000000" x="37.811417334870946" y="-14.171630299479382" font-family="sans-serif">Publi…</text></g><g class="relationship" transform="translate(111.09022472266747 -46.85869860577484) rotate(414.3183591240171)"><path class="outline" fill="#A5ABB6" stroke="none" d="M 25 0.5 L 25.63336160859143 0.5 L 25.63336160859143 -0.5 L 25 -0.5 Z M 44.96929910859143 0.5 L 45.60266071718286 0.5 L 45.60266071718286 3.5 L 52.60266071718286 0 L 45.60266071718286 -3.5 L 45.60266071718286 -0.5 L 44.96929910859143 -0.5 Z"/><text text-anchor="middle" pointer-events="none" font-size="8px" fill="#000000" x="35.30133035859143" y="3" font-family="sans-serif">trek</text></g><g class="relationship" transform="translate(10.583577160204504 54.60860919762217) rotate(476.5739552563271)"><path class="outline" fill="#A5ABB6" stroke="none" d="M 24.018736134675446,-6.953439040707552 L 24.277555179777966,-5.987513214418485 A 145.24065847394144 145.24065847394144 0 0 1 36.87212757988293,-8.769305457976145 L 36.700023732387166,-9.754384269887737 A 146.24065847394144 146.24065847394144 0 0 0 24.018736134675446,-6.953439040707552 Z M 83.12279790883636,-10.383713670258317 L 82.97746080207985,-9.39433147646281 A 145.24065847394144 145.24065847394144 0 0 1 95.64281360071372,-6.954974898604611 L 94.94519469207923,-4.037214137624435 L 102.56719186110655,-5.813490905287481 L 96.57297214555972,-10.845322579911512 L 95.87535323692522,-7.927561818931336 A 146.24065847394144 146.24065847394144 0 0 0 83.12279790883636,-10.383713670258317"/><text text-anchor="middle" pointer-events="none" font-size="8px" fill="#000000" x="59.89305494646714" y="-8.423078512830415" transform="rotate(180 59.89305494646714 -11.423078512830415)" font-family="sans-serif">twowheeler</text></g><g class="relationship" transform="translate(-46.177353586684696 168.08637959099806) rotate(354.4245708256)"><path class="outline" fill="#A5ABB6" stroke="none" d="M 21.40063509461097,12.933012701892217 L 21.90063509461097,12.06698729810778 A 52.04354666934118 52.04354666934118 0 0 0 24.111982439194136,13.273317188480092 L 23.654472766739122,14.162521832873104 A 53.04354666934118 53.04354666934118 0 0 1 21.40063509461097,12.933012701892217 Z M 69.02317452455308,15.661912245836263 L 68.62537370955842,14.744440441588537 A 52.04354666934118 52.04354666934118 0 0 0 70.91154470278504,13.686749053455861 L 69.58635813818184,10.99530323958645 L 77.41244936258086,11.043221371693305 L 72.67846012225597,17.27534347194841 L 71.35327355765277,14.583897658078998 A 53.04354666934118 53.04354666934118 0 0 1 69.02317452455308,15.661912245836263"/><text text-anchor="middle" pointer-events="none" font-size="8px" fill="#000000" x="46.18684410185111" y="22.510828939304965" font-family="sans-serif">twowheeler</text></g><g class="relationship" transform="translate(-46.177353586684696 168.08637959099806) rotate(354.4245708256)"><path class="outline" fill="#A5ABB6" stroke="none" d="M 25 0.5 L 35.41472286407965 0.5 L 35.41472286407965 -0.5 L 25 -0.5 Z M 57.42644161407965 0.5 L 67.8411644781593 0.5 L 67.8411644781593 3.5 L 74.8411644781593 0 L 67.8411644781593 -3.5 L 67.8411644781593 -0.5 L 57.42644161407965 -0.5 Z"/><text text-anchor="middle" pointer-events="none" font-size="8px" fill="#000000" x="46.42058223907965" y="3" font-family="sans-serif">road</text></g><g class="relationship" transform="translate(-46.177353586684696 168.08637959099806) rotate(354.4245708256)"><path class="outline" fill="#A5ABB6" stroke="none" d="M 21.40063509461097,-12.933012701892217 L 21.90063509461097,-12.06698729810778 A 52.04354666934118 52.04354666934118 0 0 1 36.71554622407879,-17.818556914611904 L 36.50020997352682,-18.795096877541333 A 53.04354666934118 53.04354666934118 0 0 0 21.40063509461097,-12.933012701892217 Z M 55.899597970886184,-19.43622733209712 L 55.74920852593952,-18.44760049913706 A 52.04354666934118 52.04354666934118 0 0 1 70.91154470278504,-13.686749053455861 L 69.58635813818184,-10.99530323958645 L 77.41244936258086,-11.043221371693305 L 72.67846012225597,-17.27534347194841 L 71.35327355765277,-14.583897658078998 A 53.04354666934118 53.04354666934118 0 0 0 55.899597970886184,-19.43622733209712"/><text text-anchor="middle" pointer-events="none" font-size="8px" fill="#000000" x="46.18684410185112" y="-16.510828939304965" font-family="sans-serif">trek</text></g><g class="relationship" transform="translate(10.583577160204504 54.60860919762217) rotate(476.5739552563271)"><path class="outline" fill="#A5ABB6" stroke="none" d="M 24.018736134675446,6.953439040707552 L 24.277555179777966,5.987513214418485 A 145.24065847394144 145.24065847394144 0 0 0 50.27731192732365,10.473193858903528 L 50.19750444152365,11.470004154401266 A 146.24065847394144 146.24065847394144 0 0 1 24.018736134675446,6.953439040707552 Z M 69.58377038640123,11.732813677075256 L 69.5310137402616,10.734206278600709 A 145.24065847394144 145.24065847394144 0 0 0 95.64281360071372,6.954974898604611 L 94.94519469207923,4.037214137624435 L 102.56719186110655,5.813490905287481 L 96.57297214555972,10.845322579911512 L 95.87535323692522,7.927561818931336 A 146.24065847394144 146.24065847394144 0 0 1 69.58377038640123,11.732813677075256"/><text text-anchor="middle" pointer-events="none" font-size="8px" fill="#000000" x="59.89305494646714" y="14.423078512830415" transform="rotate(180 59.89305494646714 11.423078512830415)" font-family="sans-serif">trek</text></g><g class="relationship" transform="translate(-46.177353586684696 168.08637959099806) rotate(399.7234912975498)"><path class="outline" fill="#A5ABB6" stroke="none" d="M 25 0.5 L 50.21440287627712 0.5 L 50.21440287627712 -0.5 L 25 -0.5 Z M 69.55034037627712 0.5 L 94.76474325255424 0.5 L 94.76474325255424 3.5 L 101.76474325255424 0 L 94.76474325255424 -3.5 L 94.76474325255424 -0.5 L 69.55034037627712 -0.5 Z"/><text text-anchor="middle" pointer-events="none" font-size="8px" fill="#000000" x="59.88237162627712" y="3" font-family="sans-serif">trek</text></g><g class="relationship" transform="translate(51.322176203511106 249.0995996391897) rotate(331.07276323621437)"><path class="outline" fill="#A5ABB6" stroke="none" d="M 25 0.5 L 49.1765338467493 0.5 L 49.1765338467493 -0.5 L 25 -0.5 Z M 68.5124713467493 0.5 L 92.6890051934986 0.5 L 92.6890051934986 3.5 L 99.6890051934986 0 L 92.6890051934986 -3.5 L 92.6890051934986 -0.5 L 68.5124713467493 -0.5 Z"/><text text-anchor="middle" pointer-events="none" font-size="8px" fill="#000000" x="58.8445025967493" y="3" font-family="sans-serif">trek</text></g></g><g class="layer nodes"><g class="node" transform="translate(27.927138752250805,-47.88097285483187)"><circle class="outline" cx="0" cy="0" r="25" fill="#F16667" stroke="#eb2728" stroke-width="2px"/><text text-anchor="middle" pointer-events="none" font-family="sans-serif" dy="1.5625" font-size="25" fill="#FFFFFF"/><text text-anchor="middle" pointer-events="none" x="0" y="5" font-size="10px" fill="#FFFFFF" font-family="sans-serif"> Darjeeling</text></g><g class="node" transform="translate(160.45431895580128,188.78771495268634)"><circle class="outline" cx="0" cy="0" r="25" fill="#D9C8AE" stroke="#c0a378" stroke-width="2px"/><text text-anchor="middle" pointer-events="none" font-family="sans-serif" dy="1.5625" font-size="25" fill="#2A2C34"/><text text-anchor="middle" pointer-events="none" x="0" y="5" font-size="10px" fill="#2A2C34" font-family="sans-serif"> Sandak…</text></g><g class="node" transform="translate(156.35437976837682,16.175650906091953)"><circle class="outline" cx="0" cy="0" r="25" fill="#8DCC93" stroke="#5db665" stroke-width="2px"/><text text-anchor="middle" pointer-events="none" font-family="sans-serif" dy="1.5625" font-size="25" fill="#2A2C34"/><text text-anchor="middle" pointer-events="none" x="0" y="5" font-size="10px" fill="#2A2C34" font-family="sans-serif"> Tumbling</text></g><g class="node" transform="translate(283.18558226005536,57.1882144247042)"><circle class="outline" cx="0" cy="0" r="25" fill="#8DCC93" stroke="#5db665" stroke-width="2px"/><text text-anchor="middle" pointer-events="none" font-family="sans-serif" dy="1.5625" font-size="25" fill="#2A2C34"/><text text-anchor="middle" pointer-events="none" x="0" y="5" font-size="10px" fill="#2A2C34" font-family="sans-serif"> Gairibus</text></g><g class="node" transform="translate(191.02119955152585,65.60597746180285)"><circle class="outline" cx="0" cy="0" r="25" fill="#8DCC93" stroke="#5db665" stroke-width="2px"/><text text-anchor="middle" pointer-events="none" font-family="sans-serif" dy="1.5625" font-size="25" fill="#2A2C34"/><text text-anchor="middle" pointer-events="none" x="0" y="5" font-size="10px" fill="#2A2C34" font-family="sans-serif"> BhikeBh…</text></g><g class="node" transform="translate(111.09022472266747,-46.85869860577484)"><circle class="outline" cx="0" cy="0" r="25" fill="#F16667" stroke="#eb2728" stroke-width="2px"/><text text-anchor="middle" pointer-events="none" font-family="sans-serif" dy="1.5625" font-size="25" fill="#FFFFFF"/><text text-anchor="middle" pointer-events="none" x="0" y="5" font-size="10px" fill="#FFFFFF" font-family="sans-serif"> Rimbik</text></g><g class="node" transform="translate(10.583577160204504,54.60860919762217)"><circle class="outline" cx="0" cy="0" r="25" fill="#8DCC93" stroke="#5db665" stroke-width="2px"/><text text-anchor="middle" pointer-events="none" font-family="sans-serif" dy="1.5625" font-size="25" fill="#2A2C34"/><text text-anchor="middle" pointer-events="none" x="0" y="5" font-size="10px" fill="#2A2C34" font-family="sans-serif"> Sirikhola</text></g><g class="node" transform="translate(53.191477926913855,158.38620186185722)"><circle class="outline" cx="0" cy="0" r="25" fill="#8DCC93" stroke="#5db665" stroke-width="2px"/><text text-anchor="middle" pointer-events="none" font-family="sans-serif" dy="1.5625" font-size="25" fill="#2A2C34"/><text text-anchor="middle" pointer-events="none" x="0" y="5" font-size="10px" fill="#2A2C34" font-family="sans-serif"> Gurdum</text></g><g class="node" transform="translate(-46.177353586684696,168.08637959099806)"><circle class="outline" cx="0" cy="0" r="25" fill="#8DCC93" stroke="#5db665" stroke-width="2px"/><text text-anchor="middle" pointer-events="none" font-family="sans-serif" dy="1.5625" font-size="25" fill="#2A2C34"/><text text-anchor="middle" pointer-events="none" x="0" y="5" font-size="10px" fill="#2A2C34" font-family="sans-serif"> Rammam</text></g><g class="node" transform="translate(51.322176203511106,249.0995996391897)"><circle class="outline" cx="0" cy="0" r="25" fill="#D9C8AE" stroke="#c0a378" stroke-width="2px"/><text text-anchor="middle" pointer-events="none" font-family="sans-serif" dy="1.5625" font-size="25" fill="#2A2C34"/><text text-anchor="middle" pointer-events="none" x="0" y="5" font-size="10px" fill="#2A2C34" font-family="sans-serif"> Sabargr…</text></g></g></svg>