<svg xmlns="http://www.w3.org/2000/svg" width="623.5492553710938" height="630.2665405273438" viewBox="-217.76443481445312 -227.0233917236328 623.5492553710938 630.2665405273438"><title>Neo4j Graph Visualization</title><desc>Created using Neo4j (http://www.neo4j.com/)</desc><g class="layer relationships"><g class="relationship" transform="translate(-54.437970851173624 137.11134292465832) rotate(336.88668625241974)"><path class="outline" fill="#A5ABB6" stroke="none" d="M 25 0.5 L 61.08755744206836 0.5 L 61.08755744206836 -0.5 L 25 -0.5 Z M 95.53286994206836 0.5 L 131.62042738413672 0.5 L 131.62042738413672 3.5 L 138.62042738413672 0 L 131.62042738413672 -3.5 L 131.62042738413672 -0.5 L 95.53286994206836 -0.5 Z"/><text text-anchor="middle" pointer-events="none" font-size="8px" fill="#000000" x="78.31021369206836" y="3" font-family="sans-serif">ORIGIN</text></g><g class="relationship" transform="translate(-54.437970851173624 137.11134292465832) rotate(200.61661533005872)"><path class="outline" fill="#A5ABB6" stroke="none" d="M 25 0.5 L 38.665098817173146 0.5 L 38.665098817173146 -0.5 L 25 -0.5 Z M 97.85259881717315 0.5 L 111.51769763434629 0.5 L 111.51769763434629 3.5 L 118.51769763434629 0 L 111.51769763434629 -3.5 L 111.51769763434629 -0.5 L 97.85259881717315 -0.5 Z"/><text text-anchor="middle" pointer-events="none" font-size="8px" fill="#000000" x="68.25884881717315" y="3" transform="rotate(180 68.25884881717315 0)" font-family="sans-serif">DESTINATION</text></g><g class="relationship" transform="translate(213.91066806191026 122.61254378514889) rotate(202.87676752338723)"><path class="outline" fill="#A5ABB6" stroke="none" d="M 25 0.5 L 43.23938544759001 0.5 L 43.23938544759001 -0.5 L 25 -0.5 Z M 77.68469794759001 0.5 L 95.92408339518002 0.5 L 95.92408339518002 3.5 L 102.92408339518002 0 L 95.92408339518002 -3.5 L 95.92408339518002 -0.5 L 77.68469794759001 -0.5 Z"/><text text-anchor="middle" pointer-events="none" font-size="8px" fill="#000000" x="60.46204169759001" y="3" transform="rotate(180 60.46204169759001 0)" font-family="sans-serif">ORIGIN</text></g><g class="relationship" transform="translate(213.91066806191026 122.61254378514889) rotate(380.869054085833)"><path class="outline" fill="#A5ABB6" stroke="none" d="M 25 0.5 L 47.24015364384341 0.5 L 47.24015364384341 -0.5 L 25 -0.5 Z M 106.42765364384341 0.5 L 128.66780728768683 0.5 L 128.66780728768683 3.5 L 135.66780728768683 0 L 128.66780728768683 -3.5 L 128.66780728768683 -0.5 L 106.42765364384341 -0.5 Z"/><text text-anchor="middle" pointer-events="none" font-size="8px" fill="#000000" x="76.83390364384341" y="3" font-family="sans-serif">DESTINATION</text></g><g class="relationship" transform="translate(242.38122082363793 0.2059281596344654) rotate(513.5886981015038)"><path class="outline" fill="#A5ABB6" stroke="none" d="M 25 0.5 L 60.97039802613571 0.5 L 60.97039802613571 -0.5 L 25 -0.5 Z M 95.41571052613571 0.5 L 131.38610855227142 0.5 L 131.38610855227142 3.5 L 138.38610855227142 0 L 131.38610855227142 -3.5 L 131.38610855227142 -0.5 L 95.41571052613571 -0.5 Z"/><text text-anchor="middle" pointer-events="none" font-size="8px" fill="#000000" x="78.19305427613571" y="3" transform="rotate(180 78.19305427613571 0)" font-family="sans-serif">ORIGIN</text></g><g class="relationship" transform="translate(242.38122082363793 0.2059281596344654) rotate(333.98716339408315)"><path class="outline" fill="#A5ABB6" stroke="none" d="M 25 0.5 L 41.68328237983114 0.5 L 41.68328237983114 -0.5 L 25 -0.5 Z M 100.87078237983114 0.5 L 117.55406475966228 0.5 L 117.55406475966228 3.5 L 124.55406475966228 0 L 117.55406475966228 -3.5 L 117.55406475966228 -0.5 L 100.87078237983114 -0.5 Z"/><text text-anchor="middle" pointer-events="none" font-size="8px" fill="#000000" x="71.27703237983114" y="3" font-family="sans-serif">DESTINATION</text></g><g class="relationship" transform="translate(-33.288483960923784 66.74255424193338) rotate(362.7177091176827)"><path class="outline" fill="#A5ABB6" stroke="none" d="M 25 0.5 L 44.018749911330445 0.5 L 44.018749911330445 -0.5 L 25 -0.5 Z M 78.46406241133045 0.5 L 97.48281232266089 0.5 L 97.48281232266089 3.5 L 104.48281232266089 0 L 97.48281232266089 -3.5 L 97.48281232266089 -0.5 L 78.46406241133045 -0.5 Z"/><text text-anchor="middle" pointer-events="none" font-size="8px" fill="#000000" x="61.241406161330445" y="3" font-family="sans-serif">ORIGIN</text></g><g class="relationship" transform="translate(-33.288483960923784 66.74255424193338) rotate(532.7299496653034)"><path class="outline" fill="#A5ABB6" stroke="none" d="M 25 0.5 L 45.27424544127989 0.5 L 45.27424544127989 -0.5 L 25 -0.5 Z M 104.46174544127989 0.5 L 124.73599088255978 0.5 L 124.73599088255978 3.5 L 131.73599088255978 0 L 124.73599088255978 -3.5 L 124.73599088255978 -0.5 L 104.46174544127989 -0.5 Z"/><text text-anchor="middle" pointer-events="none" font-size="8px" fill="#000000" x="74.86799544127989" y="3" transform="rotate(180 74.86799544127989 0)" font-family="sans-serif">DESTINATION</text></g><g class="relationship" transform="translate(168.25743571136852 221.7611266039661) rotate(244.12587717849874)"><path class="outline" fill="#A5ABB6" stroke="none" d="M 25 0.5 L 62.01049125165284 0.5 L 62.01049125165284 -0.5 L 25 -0.5 Z M 96.45580375165284 0.5 L 133.46629500330567 0.5 L 133.46629500330567 3.5 L 140.46629500330567 0 L 133.46629500330567 -3.5 L 133.46629500330567 -0.5 L 96.45580375165284 -0.5 Z"/><text text-anchor="middle" pointer-events="none" font-size="8px" fill="#000000" x="79.23314750165284" y="3" transform="rotate(180 79.23314750165284 0)" font-family="sans-serif">ORIGIN</text></g><g class="relationship" transform="translate(168.25743571136852 221.7611266039661) rotate(444.2326143957526)"><path class="outline" fill="#A5ABB6" stroke="none" d="M 25 0.5 L 35.347345545830635 0.5 L 35.347345545830635 -0.5 L 25 -0.5 Z M 94.53484554583063 0.5 L 104.88219109166127 0.5 L 104.88219109166127 3.5 L 111.88219109166127 0 L 104.88219109166127 -3.5 L 104.88219109166127 -0.5 L 94.53484554583063 -0.5 Z"/><text text-anchor="middle" pointer-events="none" font-size="8px" fill="#000000" x="64.94109554583063" y="3" font-family="sans-serif">DESTINATION</text></g><g class="relationship" transform="translate(117.66625691168652 -101.57594154464977) rotate(457.063671071701)"><path class="outline" fill="#A5ABB6" stroke="none" d="M 25 0.5 L 67.17343934873871 0.5 L 67.17343934873871 -0.5 L 25 -0.5 Z M 101.61875184873871 0.5 L 143.79219119747742 0.5 L 143.79219119747742 3.5 L 150.79219119747742 0 L 143.79219119747742 -3.5 L 143.79219119747742 -0.5 L 101.61875184873871 -0.5 Z"/><text text-anchor="middle" pointer-events="none" font-size="8px" fill="#000000" x="84.39609559873871" y="3" transform="rotate(180 84.39609559873871 0)" font-family="sans-serif">ORIGIN</text></g><g class="relationship" transform="translate(117.66625691168652 -101.57594154464977) rotate(249.74415163197705)"><path class="outline" fill="#A5ABB6" stroke="none" d="M 25 0.5 L 26.234702025254897 0.5 L 26.234702025254897 -0.5 L 25 -0.5 Z M 69.5706395252549 0.5 L 70.8053415505098 0.5 L 70.8053415505098 3.5 L 77.8053415505098 0 L 70.8053415505098 -3.5 L 70.8053415505098 -0.5 L 69.5706395252549 -0.5 Z"/><text text-anchor="middle" pointer-events="none" font-size="8px" fill="#000000" x="47.9026707752549" y="3" transform="rotate(180 47.9026707752549 0)" font-family="sans-serif">DESTIN…</text></g><g class="relationship" transform="translate(271.2286511549197 138.93032350315536) rotate(200.65801045457954)"><path class="outline" fill="#A5ABB6" stroke="none" d="M 25 0.5 L 72.8861004579655 0.5 L 72.8861004579655 -0.5 L 25 -0.5 Z M 107.3314129579655 0.5 L 155.217513415931 0.5 L 155.217513415931 3.5 L 162.217513415931 0 L 155.217513415931 -3.5 L 155.217513415931 -0.5 L 107.3314129579655 -0.5 Z"/><text text-anchor="middle" pointer-events="none" font-size="8px" fill="#000000" x="90.1087567079655" y="3" transform="rotate(180 90.1087567079655 0)" font-family="sans-serif">ORIGIN</text></g><g class="relationship" transform="translate(271.2286511549197 138.93032350315536) rotate(383.79150963383546)"><path class="outline" fill="#A5ABB6" stroke="none" d="M 25 0.5 L 25.546546522826574 0.5 L 25.546546522826574 -0.5 L 25 -0.5 Z M 68.88248402282657 0.5 L 69.42903054565315 0.5 L 69.42903054565315 3.5 L 76.42903054565315 0 L 69.42903054565315 -3.5 L 69.42903054565315 -0.5 L 68.88248402282657 -0.5 Z"/><text text-anchor="middle" pointer-events="none" font-size="8px" fill="#000000" x="47.214515272826574" y="3" font-family="sans-serif">DESTIN…</text></g><g class="relationship" transform="translate(265.1953880134798 79.40063742489839) rotate(182.20699156424428)"><path class="outline" fill="#A5ABB6" stroke="none" d="M 25 0.5 L 63.91347133286786 0.5 L 63.91347133286786 -0.5 L 25 -0.5 Z M 98.35878383286786 0.5 L 137.27225516573571 0.5 L 137.27225516573571 3.5 L 144.27225516573571 0 L 137.27225516573571 -3.5 L 137.27225516573571 -0.5 L 98.35878383286786 -0.5 Z"/><text text-anchor="middle" pointer-events="none" font-size="8px" fill="#000000" x="81.13612758286786" y="3" transform="rotate(180 81.13612758286786 0)" font-family="sans-serif">ORIGIN</text></g><g class="relationship" transform="translate(265.1953880134798 79.40063742489839) rotate(405.4612377702037)"><path class="outline" fill="#A5ABB6" stroke="none" d="M 25 0.5 L 37.368167586454675 0.5 L 37.368167586454675 -0.5 L 25 -0.5 Z M 96.55566758645467 0.5 L 108.92383517290935 0.5 L 108.92383517290935 3.5 L 115.92383517290935 0 L 108.92383517290935 -3.5 L 108.92383517290935 -0.5 L 96.55566758645467 -0.5 Z"/><text text-anchor="middle" pointer-events="none" font-size="8px" fill="#000000" x="66.96191758645467" y="3" font-family="sans-serif">DESTINATION</text></g><g class="relationship" transform="translate(-88.84433864730373 88.1621642776106) rotate(355.27562765272444)"><path class="outline" fill="#A5ABB6" stroke="none" d="M 25 0.5 L 72.03902369227916 0.5 L 72.03902369227916 -0.5 L 25 -0.5 Z M 106.48433619227916 0.5 L 153.52335988455832 0.5 L 153.52335988455832 3.5 L 160.52335988455832 0 L 153.52335988455832 -3.5 L 153.52335988455832 -0.5 L 106.48433619227916 -0.5 Z"/><text text-anchor="middle" pointer-events="none" font-size="8px" fill="#000000" x="89.26167994227916" y="3" font-family="sans-serif">ORIGIN</text></g><g class="relationship" transform="translate(-88.84433864730373 88.1621642776106) rotate(180.90894888980608)"><path class="outline" fill="#A5ABB6" stroke="none" d="M 25 0.5 L 27.68703687396924 0.5 L 27.68703687396924 -0.5 L 25 -0.5 Z M 65.24563062396925 0.5 L 67.93266749793848 0.5 L 67.93266749793848 3.5 L 74.93266749793848 0 L 67.93266749793848 -3.5 L 67.93266749793848 -0.5 L 65.24563062396925 -0.5 Z"/><text text-anchor="middle" pointer-events="none" font-size="8px" fill="#000000" x="46.46633374896924" y="3" transform="rotate(180 46.46633374896924 0)" font-family="sans-serif">DESTI…</text></g><g class="relationship" transform="translate(148.76867087769782 -50.441443484628486) rotate(473.14639412401596)"><path class="outline" fill="#A5ABB6" stroke="none" d="M 25 0.5 L 46.337147454084686 0.5 L 46.337147454084686 -0.5 L 25 -0.5 Z M 80.78245995408469 0.5 L 102.11960740816937 0.5 L 102.11960740816937 3.5 L 109.11960740816937 0 L 102.11960740816937 -3.5 L 102.11960740816937 -0.5 L 80.78245995408469 -0.5 Z"/><text text-anchor="middle" pointer-events="none" font-size="8px" fill="#000000" x="63.559803704084686" y="3" transform="rotate(180 63.559803704084686 0)" font-family="sans-serif">ORIGIN</text></g><g class="relationship" transform="translate(148.76867087769782 -50.441443484628486) rotate(245.68093192840786)"><path class="outline" fill="#A5ABB6" stroke="none" d="M 25 0.5 L 47.88255213486889 0.5 L 47.88255213486889 -0.5 L 25 -0.5 Z M 107.07005213486889 0.5 L 129.95260426973778 0.5 L 129.95260426973778 3.5 L 136.95260426973778 0 L 129.95260426973778 -3.5 L 129.95260426973778 -0.5 L 107.07005213486889 -0.5 Z"/><text text-anchor="middle" pointer-events="none" font-size="8px" fill="#000000" x="77.47630213486889" y="3" transform="rotate(180 77.47630213486889 0)" font-family="sans-serif">DESTINATION</text></g><g class="relationship" transform="translate(-72.44414572192046 21.372881359422323) rotate(376.9986608365459)"><path class="outline" fill="#A5ABB6" stroke="none" d="M 25 0.5 L 67.372501461677 0.5 L 67.372501461677 -0.5 L 25 -0.5 Z M 101.817813961677 0.5 L 144.190315423354 0.5 L 144.190315423354 3.5 L 151.190315423354 0 L 144.190315423354 -3.5 L 144.190315423354 -0.5 L 101.817813961677 -0.5 Z"/><text text-anchor="middle" pointer-events="none" font-size="8px" fill="#000000" x="84.595157711677" y="3" font-family="sans-serif">ORIGIN</text></g><g class="relationship" transform="translate(-72.44414572192046 21.372881359422323) rotate(510.7269399631107)"><path class="outline" fill="#A5ABB6" stroke="none" d="M 25 0.5 L 33.58077808863909 0.5 L 33.58077808863909 -0.5 L 25 -0.5 Z M 92.7682780886391 0.5 L 101.34905617727819 0.5 L 101.34905617727819 3.5 L 108.34905617727819 0 L 101.34905617727819 -3.5 L 101.34905617727819 -0.5 L 92.7682780886391 -0.5 Z"/><text text-anchor="middle" pointer-events="none" font-size="8px" fill="#000000" x="63.17452808863909" y="3" transform="rotate(180 63.17452808863909 0)" font-family="sans-serif">DESTINATION</text></g><g class="relationship" transform="translate(177.56335254883814 -102.67580422364685) rotate(474.90629228791937)"><path class="outline" fill="#A5ABB6" stroke="none" d="M 25 0.5 L 76.05696994759244 0.5 L 76.05696994759244 -0.5 L 25 -0.5 Z M 110.50228244759244 0.5 L 161.55925239518487 0.5 L 161.55925239518487 3.5 L 168.55925239518487 0 L 161.55925239518487 -3.5 L 161.55925239518487 -0.5 L 110.50228244759244 -0.5 Z"/><text text-anchor="middle" pointer-events="none" font-size="8px" fill="#000000" x="93.27962619759244" y="3" transform="rotate(180 93.27962619759244 0)" font-family="sans-serif">ORIGIN</text></g><g class="relationship" transform="translate(177.56335254883814 -102.67580422364685) rotate(224.95735561241025)"><path class="outline" fill="#A5ABB6" stroke="none" d="M 25 0.5 L 34.3774107360411 0.5 L 34.3774107360411 -0.5 L 25 -0.5 Z M 93.5649107360411 0.5 L 102.9423214720822 0.5 L 102.9423214720822 3.5 L 109.9423214720822 0 L 102.9423214720822 -3.5 L 102.9423214720822 -0.5 L 93.5649107360411 -0.5 Z"/><text text-anchor="middle" pointer-events="none" font-size="8px" fill="#000000" x="63.9711607360411" y="3" transform="rotate(180 63.9711607360411 0)" font-family="sans-serif">DESTINATION</text></g><g class="relationship" transform="translate(110.27060096132625 236.5183513841032) rotate(265.0328104756646)"><path class="outline" fill="#A5ABB6" stroke="none" d="M 25 0.5 L 61.40394740641379 0.5 L 61.40394740641379 -0.5 L 25 -0.5 Z M 95.84925990641379 0.5 L 132.25320731282758 0.5 L 132.25320731282758 3.5 L 139.25320731282758 0 L 132.25320731282758 -3.5 L 132.25320731282758 -0.5 L 95.84925990641379 -0.5 Z"/><text text-anchor="middle" pointer-events="none" font-size="8px" fill="#000000" x="78.62660365641379" y="3" transform="rotate(180 78.62660365641379 0)" font-family="sans-serif">ORIGIN</text></g><g class="relationship" transform="translate(110.27060096132625 236.5183513841032) rotate(419.42538881643463)"><path class="outline" fill="#A5ABB6" stroke="none" d="M 25 0.5 L 37.42695916657253 0.5 L 37.42695916657253 -0.5 L 25 -0.5 Z M 96.61445916657253 0.5 L 109.04141833314506 0.5 L 109.04141833314506 3.5 L 116.04141833314506 0 L 109.04141833314506 -3.5 L 109.04141833314506 -0.5 L 96.61445916657253 -0.5 Z"/><text text-anchor="middle" pointer-events="none" font-size="8px" fill="#000000" x="67.02070916657253" y="3" font-family="sans-serif">DESTINATION</text></g><g class="relationship" transform="translate(55.70821105824559 -98.97477011225203) rotate(436.7899384558739)"><path class="outline" fill="#A5ABB6" stroke="none" d="M 25 0.5 L 67.54130321312246 0.5 L 67.54130321312246 -0.5 L 25 -0.5 Z M 101.98661571312246 0.5 L 144.52791892624492 0.5 L 144.52791892624492 3.5 L 151.52791892624492 0 L 144.52791892624492 -3.5 L 144.52791892624492 -0.5 L 101.98661571312246 -0.5 Z"/><text text-anchor="middle" pointer-events="none" font-size="8px" fill="#000000" x="84.76395946312246" y="3" font-family="sans-serif">ORIGIN</text></g><g class="relationship" transform="translate(55.70821105824559 -98.97477011225203) rotate(284.90579028280797)"><path class="outline" fill="#A5ABB6" stroke="none" d="M 25 0.5 L 26.080859588166618 0.5 L 26.080859588166618 -0.5 L 25 -0.5 Z M 69.41679708816662 0.5 L 70.49765667633324 0.5 L 70.49765667633324 3.5 L 77.49765667633324 0 L 70.49765667633324 -3.5 L 70.49765667633324 -0.5 L 69.41679708816662 -0.5 Z"/><text text-anchor="middle" pointer-events="none" font-size="8px" fill="#000000" x="47.74882833816662" y="3" font-family="sans-serif">DESTIN…</text></g><g class="relationship" transform="translate(-4.08281447466565 -95.20585747603644) rotate(419.2173482148436)"><path class="outline" fill="#A5ABB6" stroke="none" d="M 25 0.5 L 77.10352766407527 0.5 L 77.10352766407527 -0.5 L 25 -0.5 Z M 111.54884016407527 0.5 L 163.65236782815055 0.5 L 163.65236782815055 3.5 L 170.65236782815055 0 L 163.65236782815055 -3.5 L 163.65236782815055 -0.5 L 111.54884016407527 -0.5 Z"/><text text-anchor="middle" pointer-events="none" font-size="8px" fill="#000000" x="94.32618391407527" y="3" font-family="sans-serif">ORIGIN</text></g><g class="relationship" transform="translate(-4.08281447466565 -95.20585747603644) rotate(309.9615187486087)"><path class="outline" fill="#A5ABB6" stroke="none" d="M 25 0.5 L 33.97784430709751 0.5 L 33.97784430709751 -0.5 L 25 -0.5 Z M 93.16534430709751 0.5 L 102.14318861419503 0.5 L 102.14318861419503 3.5 L 109.14318861419503 0 L 102.14318861419503 -3.5 L 102.14318861419503 -0.5 L 93.16534430709751 -0.5 Z"/><text text-anchor="middle" pointer-events="none" font-size="8px" fill="#000000" x="63.57159430709751" y="3" font-family="sans-serif">DESTINATION</text></g><g class="relationship" transform="translate(88.88213488349915 -49.218433229556794) rotate(446.6409368042992)"><path class="outline" fill="#A5ABB6" stroke="none" d="M 25 0.5 L 40.43263147207441 0.5 L 40.43263147207441 -0.5 L 25 -0.5 Z M 74.8779439720744 0.5 L 90.31057544414882 0.5 L 90.31057544414882 3.5 L 97.31057544414882 0 L 90.31057544414882 -3.5 L 90.31057544414882 -0.5 L 74.8779439720744 -0.5 Z"/><text text-anchor="middle" pointer-events="none" font-size="8px" fill="#000000" x="57.65528772207441" y="3" font-family="sans-serif">ORIGIN</text></g><g class="relationship" transform="translate(88.88213488349915 -49.218433229556794) rotate(267.38032239806444)"><path class="outline" fill="#A5ABB6" stroke="none" d="M 25 0.5 L 41.38656528479345 0.5 L 41.38656528479345 -0.5 L 25 -0.5 Z M 100.57406528479345 0.5 L 116.9606305695869 0.5 L 116.9606305695869 3.5 L 123.9606305695869 0 L 116.9606305695869 -3.5 L 116.9606305695869 -0.5 L 100.57406528479345 -0.5 Z"/><text text-anchor="middle" pointer-events="none" font-size="8px" fill="#000000" x="70.98031528479345" y="3" transform="rotate(180 70.98031528479345 0)" font-family="sans-serif">DESTINATION</text></g><g class="relationship" transform="translate(-9.016910264577088 194.00255014323662) rotate(310.9398927964519)"><path class="outline" fill="#A5ABB6" stroke="none" d="M 25 0.5 L 59.447424771431216 0.5 L 59.447424771431216 -0.5 L 25 -0.5 Z M 93.89273727143122 0.5 L 128.34016204286243 0.5 L 128.34016204286243 3.5 L 135.34016204286243 0 L 128.34016204286243 -3.5 L 128.34016204286243 -0.5 L 93.89273727143122 -0.5 Z"/><text text-anchor="middle" pointer-events="none" font-size="8px" fill="#000000" x="76.67008102143122" y="3" font-family="sans-serif">ORIGIN</text></g><g class="relationship" transform="translate(-9.016910264577088 194.00255014323662) rotate(495.68085993860353)"><path class="outline" fill="#A5ABB6" stroke="none" d="M 25 0.5 L 43.01673118737112 0.5 L 43.01673118737112 -0.5 L 25 -0.5 Z M 102.20423118737112 0.5 L 120.22096237474224 0.5 L 120.22096237474224 3.5 L 127.22096237474224 0 L 120.22096237474224 -3.5 L 120.22096237474224 -0.5 L 102.20423118737112 -0.5 Z"/><text text-anchor="middle" pointer-events="none" font-size="8px" fill="#000000" x="72.61048118737112" y="3" transform="rotate(180 72.61048118737112 0)" font-family="sans-serif">DESTINATION</text></g><g class="relationship" transform="translate(228.40043181365138 180.8207337779751) rotate(219.19877417744806)"><path class="outline" fill="#A5ABB6" stroke="none" d="M 25 0.5 L 64.67018773508819 0.5 L 64.67018773508819 -0.5 L 25 -0.5 Z M 99.11550023508819 0.5 L 138.78568797017638 0.5 L 138.78568797017638 3.5 L 145.78568797017638 0 L 138.78568797017638 -3.5 L 138.78568797017638 -0.5 L 99.11550023508819 -0.5 Z"/><text text-anchor="middle" pointer-events="none" font-size="8px" fill="#000000" x="81.89284398508819" y="3" transform="rotate(180 81.89284398508819 0)" font-family="sans-serif">ORIGIN</text></g><g class="relationship" transform="translate(228.40043181365138 180.8207337779751) rotate(359.58901387068954)"><path class="outline" fill="#A5ABB6" stroke="none" d="M 25 0.5 L 34.7268726758989 0.5 L 34.7268726758989 -0.5 L 25 -0.5 Z M 93.9143726758989 0.5 L 103.6412453517978 0.5 L 103.6412453517978 3.5 L 110.6412453517978 0 L 103.6412453517978 -3.5 L 103.6412453517978 -0.5 L 93.9143726758989 -0.5 Z"/><text text-anchor="middle" pointer-events="none" font-size="8px" fill="#000000" x="64.3206226758989" y="3" font-family="sans-serif">DESTINATION</text></g><g class="relationship" transform="translate(28.99991684650729 -45.54060598231677) rotate(420.48223204929184)"><path class="outline" fill="#A5ABB6" stroke="none" d="M 25 0.5 L 47.32044347578295 0.5 L 47.32044347578295 -0.5 L 25 -0.5 Z M 81.76575597578295 0.5 L 104.0861994515659 0.5 L 104.0861994515659 3.5 L 111.0861994515659 0 L 104.0861994515659 -3.5 L 104.0861994515659 -0.5 L 81.76575597578295 -0.5 Z"/><text text-anchor="middle" pointer-events="none" font-size="8px" fill="#000000" x="64.54309972578295" y="3" font-family="sans-serif">ORIGIN</text></g><g class="relationship" transform="translate(28.99991684650729 -45.54060598231677) rotate(289.1911825292287)"><path class="outline" fill="#A5ABB6" stroke="none" d="M 25 0.5 L 47.63392331538927 0.5 L 47.63392331538927 -0.5 L 25 -0.5 Z M 106.82142331538927 0.5 L 129.45534663077854 0.5 L 129.45534663077854 3.5 L 136.45534663077854 0 L 129.45534663077854 -3.5 L 129.45534663077854 -0.5 L 106.82142331538927 -0.5 Z"/><text text-anchor="middle" pointer-events="none" font-size="8px" fill="#000000" x="77.22767331538927" y="3" font-family="sans-serif">DESTINATION</text></g><g class="relationship" transform="translate(49.28370708189689 224.58399822276687) rotate(287.13289681000003)"><path class="outline" fill="#A5ABB6" stroke="none" d="M 25 0.5 L 58.65060513850821 0.5 L 58.65060513850821 -0.5 L 25 -0.5 Z M 93.09591763850821 0.5 L 126.74652277701642 0.5 L 126.74652277701642 3.5 L 133.74652277701642 0 L 126.74652277701642 -3.5 L 126.74652277701642 -0.5 L 93.09591763850821 -0.5 Z"/><text text-anchor="middle" pointer-events="none" font-size="8px" fill="#000000" x="75.87326138850821" y="3" font-family="sans-serif">ORIGIN</text></g><g class="relationship" transform="translate(49.28370708189689 224.58399822276687) rotate(463.2623775917315)"><path class="outline" fill="#A5ABB6" stroke="none" d="M 25 0.5 L 43.786250864650455 0.5 L 43.786250864650455 -0.5 L 25 -0.5 Z M 102.97375086465046 0.5 L 121.76000172930091 0.5 L 121.76000172930091 3.5 L 128.7600017293009 0 L 121.76000172930091 -3.5 L 121.76000172930091 -0.5 L 102.97375086465046 -0.5 Z"/><text text-anchor="middle" pointer-events="none" font-size="8px" fill="#000000" x="73.38000086465046" y="3" transform="rotate(180 73.38000086465046 0)" font-family="sans-serif">DESTINATION</text></g></g><g class="layer nodes"><g class="node" transform="translate(96.04869483114587,72.88200609805418)"><circle class="outline" cx="0" cy="0" r="25" fill="#ECB5C9" stroke="#da7298" stroke-width="2px"/><text text-anchor="middle" pointer-events="none" font-family="sans-serif" dy="1.5625" font-size="25" fill="#2A2C34"/><text text-anchor="middle" pointer-events="none" x="0" y="5" font-size="10px" fill="#2A2C34" font-family="sans-serif"> LAX</text></g><g class="node" transform="translate(-188.76443131767644,86.57688386151308)"><circle class="outline" cx="0" cy="0" r="25" fill="#ECB5C9" stroke="#da7298" stroke-width="2px"/><text text-anchor="middle" pointer-events="none" font-family="sans-serif" dy="1.5625" font-size="25" fill="#2A2C34"/><text text-anchor="middle" pointer-events="none" x="0" y="5" font-size="10px" fill="#2A2C34" font-family="sans-serif"> SMF</text></g><g class="node" transform="translate(364.0381876190655,179.84777917602713)"><circle class="outline" cx="0" cy="0" r="25" fill="#ECB5C9" stroke="#da7298" stroke-width="2px"/><text text-anchor="middle" pointer-events="none" font-family="sans-serif" dy="1.5625" font-size="25" fill="#2A2C34"/><text text-anchor="middle" pointer-events="none" x="0" y="5" font-size="10px" fill="#2A2C34" font-family="sans-serif"> FAT</text></g><g class="node" transform="translate(376.7848322837422,-65.38437228653349)"><circle class="outline" cx="0" cy="0" r="25" fill="#ECB5C9" stroke="#da7298" stroke-width="2px"/><text text-anchor="middle" pointer-events="none" font-family="sans-serif" dy="1.5625" font-size="25" fill="#2A2C34"/><text text-anchor="middle" pointer-events="none" x="0" y="5" font-size="10px" fill="#2A2C34" font-family="sans-serif"> LAS</text></g><g class="node" transform="translate(182.0127224810755,357.95042986944725)"><circle class="outline" cx="0" cy="0" r="25" fill="#ECB5C9" stroke="#da7298" stroke-width="2px"/><text text-anchor="middle" pointer-events="none" font-family="sans-serif" dy="1.5625" font-size="25" fill="#2A2C34"/><text text-anchor="middle" pointer-events="none" x="0" y="5" font-size="10px" fill="#2A2C34" font-family="sans-serif"> TUS</text></g><g class="node" transform="translate(82.07372974979776,-198.02338973042183)"><circle class="outline" cx="0" cy="0" r="25" fill="#ECB5C9" stroke="#da7298" stroke-width="2px"/><text text-anchor="middle" pointer-events="none" font-family="sans-serif" dy="1.5625" font-size="25" fill="#2A2C34"/><text text-anchor="middle" pointer-events="none" x="0" y="5" font-size="10px" fill="#2A2C34" font-family="sans-serif"> ABQ</text></g><g class="node" transform="translate(-117.9248261147687,300.35238442359775)"><circle class="outline" cx="0" cy="0" r="25" fill="#ECB5C9" stroke="#da7298" stroke-width="2px"/><text text-anchor="middle" pointer-events="none" font-family="sans-serif" dy="1.5625" font-size="25" fill="#2A2C34"/><text text-anchor="middle" pointer-events="none" x="0" y="5" font-size="10px" fill="#2A2C34" font-family="sans-serif"> EWR</text></g><g class="node" transform="translate(14.009522922402056,374.24317790672967)"><circle class="outline" cx="0" cy="0" r="25" fill="#ECB5C9" stroke="#da7298" stroke-width="2px"/><text text-anchor="middle" pointer-events="none" font-family="sans-serif" dy="1.5625" font-size="25" fill="#2A2C34"/><text text-anchor="middle" pointer-events="none" x="0" y="5" font-size="10px" fill="#2A2C34" font-family="sans-serif"> IAH</text></g><g class="node" transform="translate(-54.437970851173624,137.11134292465832)"><circle class="outline" cx="0" cy="0" r="25" fill="#4C8EDA" stroke="#2870c2" stroke-width="2px"/><text text-anchor="middle" pointer-events="none" font-family="sans-serif" dy="1.5625" font-size="25" fill="#FFFFFF"/><text text-anchor="middle" pointer-events="none" x="0" y="5" font-size="10px" fill="#FFFFFF" font-family="sans-serif"> 11/4/2015</text></g><g class="node" transform="translate(213.91066806191026,122.61254378514889)"><circle class="outline" cx="0" cy="0" r="25" fill="#4C8EDA" stroke="#2870c2" stroke-width="2px"/><text text-anchor="middle" pointer-events="none" font-family="sans-serif" dy="1.5625" font-size="25" fill="#FFFFFF"/><text text-anchor="middle" pointer-events="none" x="0" y="5" font-size="10px" fill="#FFFFFF" font-family="sans-serif"> 11/4/2015</text></g><g class="node" transform="translate(242.38122082363793,0.2059281596344654)"><circle class="outline" cx="0" cy="0" r="25" fill="#4C8EDA" stroke="#2870c2" stroke-width="2px"/><text text-anchor="middle" pointer-events="none" font-family="sans-serif" dy="1.5625" font-size="25" fill="#FFFFFF"/><text text-anchor="middle" pointer-events="none" x="0" y="5" font-size="10px" fill="#FFFFFF" font-family="sans-serif"> 11/29/20…</text></g><g class="node" transform="translate(-33.288483960923784,66.74255424193338)"><circle class="outline" cx="0" cy="0" r="25" fill="#4C8EDA" stroke="#2870c2" stroke-width="2px"/><text text-anchor="middle" pointer-events="none" font-family="sans-serif" dy="1.5625" font-size="25" fill="#FFFFFF"/><text text-anchor="middle" pointer-events="none" x="0" y="5" font-size="10px" fill="#FFFFFF" font-family="sans-serif"> 11/2/2015</text></g><g class="node" transform="translate(168.25743571136852,221.7611266039661)"><circle class="outline" cx="0" cy="0" r="25" fill="#4C8EDA" stroke="#2870c2" stroke-width="2px"/><text text-anchor="middle" pointer-events="none" font-family="sans-serif" dy="1.5625" font-size="25" fill="#FFFFFF"/><text text-anchor="middle" pointer-events="none" x="0" y="5" font-size="10px" fill="#FFFFFF" font-family="sans-serif"> 11/1/2015</text></g><g class="node" transform="translate(117.66625691168652,-101.57594154464977)"><circle class="outline" cx="0" cy="0" r="25" fill="#4C8EDA" stroke="#2870c2" stroke-width="2px"/><text text-anchor="middle" pointer-events="none" font-family="sans-serif" dy="1.5625" font-size="25" fill="#FFFFFF"/><text text-anchor="middle" pointer-events="none" x="0" y="5" font-size="10px" fill="#FFFFFF" font-family="sans-serif"> 11/2/2015</text></g><g class="node" transform="translate(271.2286511549197,138.93032350315536)"><circle class="outline" cx="0" cy="0" r="25" fill="#4C8EDA" stroke="#2870c2" stroke-width="2px"/><text text-anchor="middle" pointer-events="none" font-family="sans-serif" dy="1.5625" font-size="25" fill="#FFFFFF"/><text text-anchor="middle" pointer-events="none" x="0" y="5" font-size="10px" fill="#FFFFFF" font-family="sans-serif"> 11/3/2015</text></g><g class="node" transform="translate(265.1953880134798,79.40063742489839)"><circle class="outline" cx="0" cy="0" r="25" fill="#4C8EDA" stroke="#2870c2" stroke-width="2px"/><text text-anchor="middle" pointer-events="none" font-family="sans-serif" dy="1.5625" font-size="25" fill="#FFFFFF"/><text text-anchor="middle" pointer-events="none" x="0" y="5" font-size="10px" fill="#FFFFFF" font-family="sans-serif"> 11/1/2015</text></g><g class="node" transform="translate(-88.84433864730373,88.1621642776106)"><circle class="outline" cx="0" cy="0" r="25" fill="#4C8EDA" stroke="#2870c2" stroke-width="2px"/><text text-anchor="middle" pointer-events="none" font-family="sans-serif" dy="1.5625" font-size="25" fill="#FFFFFF"/><text text-anchor="middle" pointer-events="none" x="0" y="5" font-size="10px" fill="#FFFFFF" font-family="sans-serif"> 11/1/2015</text></g><g class="node" transform="translate(148.76867087769782,-50.441443484628486)"><circle class="outline" cx="0" cy="0" r="25" fill="#4C8EDA" stroke="#2870c2" stroke-width="2px"/><text text-anchor="middle" pointer-events="none" font-family="sans-serif" dy="1.5625" font-size="25" fill="#FFFFFF"/><text text-anchor="middle" pointer-events="none" x="0" y="5" font-size="10px" fill="#FFFFFF" font-family="sans-serif"> 11/3/2015</text></g><g class="node" transform="translate(-72.44414572192046,21.372881359422323)"><circle class="outline" cx="0" cy="0" r="25" fill="#4C8EDA" stroke="#2870c2" stroke-width="2px"/><text text-anchor="middle" pointer-events="none" font-family="sans-serif" dy="1.5625" font-size="25" fill="#FFFFFF"/><text text-anchor="middle" pointer-events="none" x="0" y="5" font-size="10px" fill="#FFFFFF" font-family="sans-serif"> 11/3/2015</text></g><g class="node" transform="translate(177.56335254883814,-102.67580422364685)"><circle class="outline" cx="0" cy="0" r="25" fill="#4C8EDA" stroke="#2870c2" stroke-width="2px"/><text text-anchor="middle" pointer-events="none" font-family="sans-serif" dy="1.5625" font-size="25" fill="#FFFFFF"/><text text-anchor="middle" pointer-events="none" x="0" y="5" font-size="10px" fill="#FFFFFF" font-family="sans-serif"> 11/1/2015</text></g><g class="node" transform="translate(110.27060096132625,236.5183513841032)"><circle class="outline" cx="0" cy="0" r="25" fill="#4C8EDA" stroke="#2870c2" stroke-width="2px"/><text text-anchor="middle" pointer-events="none" font-family="sans-serif" dy="1.5625" font-size="25" fill="#FFFFFF"/><text text-anchor="middle" pointer-events="none" x="0" y="5" font-size="10px" fill="#FFFFFF" font-family="sans-serif"> 11/2/2015</text></g><g class="node" transform="translate(55.70821105824559,-98.97477011225203)"><circle class="outline" cx="0" cy="0" r="25" fill="#4C8EDA" stroke="#2870c2" stroke-width="2px"/><text text-anchor="middle" pointer-events="none" font-family="sans-serif" dy="1.5625" font-size="25" fill="#FFFFFF"/><text text-anchor="middle" pointer-events="none" x="0" y="5" font-size="10px" fill="#FFFFFF" font-family="sans-serif"> 11/1/2015</text></g><g class="node" transform="translate(-4.08281447466565,-95.20585747603644)"><circle class="outline" cx="0" cy="0" r="25" fill="#4C8EDA" stroke="#2870c2" stroke-width="2px"/><text text-anchor="middle" pointer-events="none" font-family="sans-serif" dy="1.5625" font-size="25" fill="#FFFFFF"/><text text-anchor="middle" pointer-events="none" x="0" y="5" font-size="10px" fill="#FFFFFF" font-family="sans-serif"> 11/2/2015</text></g><g class="node" transform="translate(88.88213488349915,-49.218433229556794)"><circle class="outline" cx="0" cy="0" r="25" fill="#4C8EDA" stroke="#2870c2" stroke-width="2px"/><text text-anchor="middle" pointer-events="none" font-family="sans-serif" dy="1.5625" font-size="25" fill="#FFFFFF"/><text text-anchor="middle" pointer-events="none" x="0" y="5" font-size="10px" fill="#FFFFFF" font-family="sans-serif"> 11/4/2015</text></g><g class="node" transform="translate(-9.016910264577088,194.00255014323662)"><circle class="outline" cx="0" cy="0" r="25" fill="#4C8EDA" stroke="#2870c2" stroke-width="2px"/><text text-anchor="middle" pointer-events="none" font-family="sans-serif" dy="1.5625" font-size="25" fill="#FFFFFF"/><text text-anchor="middle" pointer-events="none" x="0" y="5" font-size="10px" fill="#FFFFFF" font-family="sans-serif"> 11/30/20…</text></g><g class="node" transform="translate(228.40043181365138,180.8207337779751)"><circle class="outline" cx="0" cy="0" r="25" fill="#4C8EDA" stroke="#2870c2" stroke-width="2px"/><text text-anchor="middle" pointer-events="none" font-family="sans-serif" dy="1.5625" font-size="25" fill="#FFFFFF"/><text text-anchor="middle" pointer-events="none" x="0" y="5" font-size="10px" fill="#FFFFFF" font-family="sans-serif"> 11/2/2015</text></g><g class="node" transform="translate(28.99991684650729,-45.54060598231677)"><circle class="outline" cx="0" cy="0" r="25" fill="#4C8EDA" stroke="#2870c2" stroke-width="2px"/><text text-anchor="middle" pointer-events="none" font-family="sans-serif" dy="1.5625" font-size="25" fill="#FFFFFF"/><text text-anchor="middle" pointer-events="none" x="0" y="5" font-size="10px" fill="#FFFFFF" font-family="sans-serif"> 11/3/2015</text></g><g class="node" transform="translate(49.28370708189689,224.58399822276687)"><circle class="outline" cx="0" cy="0" r="25" fill="#4C8EDA" stroke="#2870c2" stroke-width="2px"/><text text-anchor="middle" pointer-events="none" font-family="sans-serif" dy="1.5625" font-size="25" fill="#FFFFFF"/><text text-anchor="middle" pointer-events="none" x="0" y="5" font-size="10px" fill="#FFFFFF" font-family="sans-serif"> 11/30/20…</text></g></g></svg>